<svg width="375" height="208" viewBox="0 0 375 208" fill="none" xmlns="http://www.w3.org/2000/svg">
<path d="M124.838 108.409H145.646C147.486 108.409 149.25 107.667 150.551 106.346C151.852 105.024 152.582 103.232 152.582 101.364C152.582 99.495 151.852 97.703 150.551 96.3817C149.25 95.0604 147.486 94.3182 145.646 94.3182H124.838C122.998 94.3182 121.234 95.0604 119.933 96.3817C118.633 97.703 117.902 99.495 117.902 101.364C117.902 103.232 118.633 105.024 119.933 106.346C121.234 107.667 122.998 108.409 124.838 108.409Z" fill="#09090B"/>
<path fill-rule="evenodd" clip-rule="evenodd" d="M202.418 186.482C199.804 190.273 196.404 193.438 192.458 195.752C188.511 198.067 184.113 199.475 179.574 199.879C175.034 200.283 170.462 199.672 166.179 198.089C161.897 196.506 158.008 193.99 154.785 190.718C154.681 190.612 154.577 190.506 154.481 190.392L120.052 150.682H87.9727L53.5784 190.392L53.275 190.718C47.4157 196.656 39.4781 199.994 31.2009 200C26.6442 199.998 22.1431 198.983 18.0139 197.026C13.8847 195.069 10.2274 192.217 7.29898 188.671C4.37058 185.125 2.24209 180.97 1.06302 176.499C-0.116054 172.028 -0.317106 167.349 0.473984 162.791C0.469808 162.75 0.469808 162.709 0.473984 162.668L14.667 88.6114C16.7793 76.3969 23.0619 65.3294 32.4108 57.3534C41.7598 49.3775 53.577 45.0035 65.7859 45H142.178C154.35 45.0197 166.131 49.3687 175.476 57.2919C184.82 65.2151 191.138 76.2121 193.332 88.3736V88.5321L207.525 162.659C207.529 162.7 207.529 162.741 207.525 162.782C208.259 166.879 208.186 171.084 207.31 175.152C206.433 179.22 204.77 183.071 202.418 186.482ZM142.178 136.591C152.296 136.591 161.999 132.508 169.153 125.241C176.308 117.974 180.327 108.118 180.327 97.8409C180.327 87.5638 176.308 77.7076 169.153 70.4405C161.999 63.1735 152.296 59.0909 142.178 59.0909H65.7859C56.8293 59.0991 48.1624 62.3154 41.31 68.174C34.4576 74.0327 29.8587 82.1583 28.3224 91.1213V91.2358L14.1207 165.292C13.493 168.964 14.0278 172.743 15.6482 176.086C17.2686 179.429 19.8912 182.164 23.1387 183.898C26.3861 185.631 30.0912 186.274 33.721 185.733C37.3507 185.193 40.7182 183.497 43.339 180.889L79.6841 138.978C80.3349 138.228 81.1353 137.627 82.0322 137.215C82.9292 136.804 83.902 136.591 84.8862 136.591H142.178ZM193.939 165.292L186.361 125.662C181.701 133.306 175.197 139.616 167.465 143.994C159.734 148.372 151.03 150.674 142.178 150.682H138.537L164.721 180.898C166.695 182.849 169.096 184.296 171.727 185.121C174.359 185.946 177.146 186.126 179.859 185.645C184.378 184.835 188.397 182.237 191.035 178.422C193.673 174.607 194.722 169.886 193.939 165.292Z" fill="#09090B"/>
<path d="M83.2215 94.3182H76.2854V87.2727C76.2854 85.4042 75.5547 83.6121 74.2539 82.2908C72.9531 80.9696 71.1889 80.2273 69.3493 80.2273C67.5098 80.2273 65.7455 80.9696 64.4448 82.2908C63.144 83.6121 62.4132 85.4042 62.4132 87.2727V94.3182H55.4772C53.6376 94.3182 51.8734 95.0605 50.5726 96.3817C49.2718 97.703 48.5411 99.4951 48.5411 101.364C48.5411 103.232 49.2718 105.024 50.5726 106.346C51.8734 107.667 53.6376 108.409 55.4772 108.409H62.4132V115.455C62.4132 117.323 63.144 119.115 64.4448 120.436C65.7455 121.758 67.5098 122.5 69.3493 122.5C71.1889 122.5 72.9531 121.758 74.2539 120.436C75.5547 119.115 76.2854 117.323 76.2854 115.455V108.409H83.2215C85.0611 108.409 86.8253 107.667 88.1261 106.346C89.4268 105.024 90.1576 103.232 90.1576 101.364C90.1576 99.4951 89.4268 97.703 88.1261 96.3817C86.8253 95.0605 85.0611 94.3182 83.2215 94.3182Z" fill="#372AAC"/>
<path d="M193.939 165.292L186.361 125.662C181.701 133.306 175.197 139.616 167.465 143.994C159.734 148.372 151.03 150.674 142.178 150.682H138.537L164.721 180.898C166.695 182.849 169.096 184.296 171.727 185.121C174.359 185.946 177.146 186.126 179.859 185.645C184.378 184.835 188.397 182.237 191.035 178.422C193.673 174.607 194.722 169.886 193.939 165.292Z" fill="#372AAC"/>
<path fill-rule="evenodd" clip-rule="evenodd" d="M142.178 136.591C152.296 136.591 161.999 132.508 169.153 125.241C176.308 117.974 180.327 108.118 180.327 97.8409C180.327 87.5638 176.308 77.7076 169.153 70.4405C161.999 63.1735 152.296 59.0909 142.178 59.0909H65.7859C56.8293 59.0991 48.1624 62.3154 41.31 68.174C34.4576 74.0327 29.8587 82.1583 28.3224 91.1213V91.2358L14.1207 165.292C13.493 168.964 14.0278 172.743 15.6482 176.086C17.2686 179.429 19.8912 182.164 23.1387 183.898C26.3861 185.631 30.0912 186.274 33.721 185.733C37.3507 185.193 40.7182 183.497 43.339 180.889L79.6841 138.978C80.3349 138.228 81.1353 137.627 82.0322 137.215C82.9292 136.804 83.902 136.591 84.8862 136.591H142.178ZM76.2854 94.3182H83.2215C85.0611 94.3182 86.8253 95.0605 88.1261 96.3817C89.4268 97.703 90.1576 99.4951 90.1576 101.364C90.1576 103.232 89.4268 105.024 88.1261 106.346C86.8253 107.667 85.0611 108.409 83.2215 108.409H76.2854V115.455C76.2854 117.323 75.5547 119.115 74.2539 120.436C72.9531 121.758 71.1889 122.5 69.3493 122.5C67.5098 122.5 65.7455 121.758 64.4448 120.436C63.144 119.115 62.4132 117.323 62.4132 115.455V108.409H55.4772C53.6376 108.409 51.8734 107.667 50.5726 106.346C49.2718 105.024 48.5411 103.232 48.5411 101.364C48.5411 99.4951 49.2718 97.703 50.5726 96.3817C51.8734 95.0605 53.6376 94.3182 55.4772 94.3182H62.4132V87.2727C62.4132 85.4042 63.144 83.6121 64.4448 82.2908C65.7455 80.9696 67.5098 80.2273 69.3493 80.2273C71.1889 80.2273 72.9531 80.9696 74.2539 82.2908C75.5547 83.6121 76.2854 85.4042 76.2854 87.2727V94.3182ZM124.838 108.409H145.646C147.486 108.409 149.25 107.667 150.551 106.346C151.852 105.024 152.582 103.232 152.582 101.364C152.582 99.495 151.852 97.703 150.551 96.3817C149.25 95.0604 147.486 94.3182 145.646 94.3182H124.838C122.998 94.3182 121.234 95.0604 119.933 96.3817C118.633 97.703 117.902 99.495 117.902 101.364C117.902 103.232 118.633 105.024 119.933 106.346C121.234 107.667 122.998 108.409 124.838 108.409Z" fill="white"/>
<path d="M65.7861 46H142.177L143.294 46.0146C154.83 46.2896 165.95 50.526 174.829 58.0547C183.973 65.8081 190.165 76.565 192.332 88.4668V88.627L192.35 88.7197L206.523 162.744L206.516 162.82L206.541 162.959C207.253 166.928 207.181 171.001 206.332 174.941C205.536 178.636 204.071 182.145 202.015 185.29L201.595 185.914C199.063 189.586 195.772 192.65 191.952 194.89C188.133 197.13 183.877 198.492 179.485 198.883C175.093 199.273 170.67 198.683 166.526 197.151C162.642 195.716 159.09 193.485 156.09 190.602L155.497 190.016C155.388 189.905 155.313 189.829 155.249 189.752L155.243 189.744L155.236 189.736L120.808 150.026L120.509 149.682H87.5156L87.2168 150.027L52.8359 189.721L52.5459 190.032C46.8744 195.772 39.1998 198.993 31.2002 198.999C26.7923 198.997 22.4379 198.016 18.4424 196.122C14.4466 194.228 10.906 191.468 8.07031 188.034C5.23457 184.6 3.17265 180.576 2.03027 176.244C0.887888 171.912 0.692466 167.379 1.45898 162.962L1.48242 162.827L1.47461 162.755L15.6494 88.7998L15.6504 88.791L15.6523 88.7822C17.7252 76.7957 23.89 65.9372 33.0596 58.1143C41.9423 50.5361 53.0948 46.2748 64.665 46.0127L65.7861 46ZM179.327 97.8408C179.327 107.858 175.409 117.462 168.44 124.54C161.473 131.618 152.026 135.591 142.179 135.591H84.8857C83.7574 135.591 82.6425 135.835 81.6152 136.307C80.7164 136.719 79.9032 137.297 79.2158 138.009L78.9287 138.322L42.6143 180.198C40.1463 182.646 36.9816 184.236 33.5732 184.744C30.1565 185.253 26.6681 184.648 23.6094 183.016C20.5505 181.383 18.0769 178.805 16.5479 175.65C15.0187 172.495 14.5138 168.927 15.1064 165.461L15.1055 165.46L29.3047 91.4238L29.3223 91.3311V91.21C30.8331 82.5068 35.3073 74.6225 41.96 68.9346C48.4243 63.4077 56.5444 60.2968 64.9707 60.1006L65.7871 60.0908H142.179C152.026 60.0909 161.473 64.0641 168.44 71.1416C175.409 78.2199 179.327 87.8239 179.327 97.8408ZM185.507 125.141C180.934 132.641 174.555 138.83 166.973 143.124C159.391 147.418 150.856 149.674 142.178 149.682H136.347L137.781 151.337L163.965 181.553L163.99 181.582L164.018 181.609C166.104 183.671 168.644 185.202 171.429 186.075C174.039 186.894 176.794 187.112 179.494 186.717L180.033 186.63L180.035 186.629C184.82 185.771 189.07 183.023 191.857 178.991C194.644 174.961 195.752 169.975 194.925 165.124L194.921 165.104L187.344 125.474L186.856 122.928L185.507 125.141ZM192.953 165.46V165.461C193.693 169.797 192.701 174.254 190.212 177.854C187.802 181.34 184.172 183.744 180.079 184.584L179.682 184.66C177.128 185.112 174.504 184.944 172.026 184.167C169.556 183.392 167.3 182.034 165.441 180.203L140.727 151.682H142.179C151.204 151.674 160.077 149.327 167.958 144.864C175.11 140.814 181.229 135.143 185.849 128.308L192.953 165.46ZM151.582 101.363C151.582 102.972 150.953 104.511 149.838 105.644C148.723 106.776 147.216 107.409 145.646 107.409H124.838C123.269 107.409 121.761 106.776 120.646 105.644C119.531 104.511 118.902 102.972 118.902 101.363C118.902 99.8558 119.455 98.4089 120.442 97.3008L120.646 97.083C121.761 95.9512 123.269 95.3184 124.838 95.3184H145.646C147.118 95.3184 148.535 95.8746 149.625 96.877L149.838 97.083C150.953 98.2155 151.582 99.755 151.582 101.363ZM75.2852 95.3184H83.2217C84.7907 95.3184 86.2987 95.9512 87.4131 97.083C88.528 98.2155 89.1571 99.7551 89.1572 101.363C89.1572 102.972 88.5281 104.511 87.4131 105.644C86.2986 106.776 84.7909 107.409 83.2217 107.409H75.2852V115.454C75.2852 117.062 74.656 118.603 73.541 119.735C72.4266 120.867 70.9186 121.5 69.3496 121.5C67.7804 121.5 66.2717 120.867 65.1572 119.735C64.0422 118.603 63.4131 117.062 63.4131 115.454V107.409H55.4775C53.9083 107.409 52.3996 106.776 51.2852 105.644C50.1703 104.511 49.541 102.972 49.541 101.363L49.5488 101.062C49.6221 99.5642 50.24 98.1447 51.2852 97.083C52.3996 95.951 53.9083 95.3184 55.4775 95.3184H63.4131V87.2725C63.4132 85.6642 64.0423 84.1247 65.1572 82.9922C66.2717 81.8601 67.7804 81.2275 69.3496 81.2275C70.9187 81.2276 72.4266 81.8603 73.541 82.9922C74.656 84.1247 75.2851 85.6642 75.2852 87.2725V95.3184ZM153.582 101.363C153.582 99.3677 152.85 97.4463 151.534 95.9697L151.264 95.6797C149.777 94.1693 147.756 93.3184 145.646 93.3184H124.838C122.86 93.3184 120.961 94.0663 119.506 95.4043L119.221 95.6797C117.734 97.1896 116.902 99.2346 116.902 101.363C116.902 103.492 117.734 105.537 119.221 107.047C120.708 108.557 122.728 109.409 124.838 109.409H145.646C147.756 109.409 149.777 108.557 151.264 107.047C152.75 105.537 153.582 103.492 153.582 101.363ZM181.327 97.8408C181.327 87.3036 177.206 77.1949 169.866 69.7393C162.526 62.2831 152.566 58.0909 142.179 58.0908H65.7852C56.5888 58.0992 47.6921 61.4019 40.6602 67.4141C33.6286 73.4259 28.9123 81.7612 27.3369 90.9521L27.3223 91.0361V91.1387L13.1387 165.104L13.1367 165.114L13.1348 165.124C12.472 169 13.0364 172.991 14.748 176.522C16.4598 180.054 19.2321 182.946 22.668 184.78C26.104 186.614 30.0256 187.295 33.8682 186.723C37.7108 186.15 41.273 184.355 44.0439 181.598L44.0703 181.572L44.0947 181.544L80.4395 139.633C80.9974 138.99 81.6827 138.476 82.4492 138.124C83.12 137.816 83.8401 137.639 84.5723 137.6L84.8867 137.591H142.179C152.566 137.591 162.526 133.399 169.866 125.942C177.206 118.487 181.327 108.378 181.327 97.8408ZM77.2852 87.2725C77.2851 85.1438 76.4533 83.0988 74.9668 81.5889C73.4798 80.0785 71.4594 79.2276 69.3496 79.2275C67.2399 79.2275 65.2194 80.0786 63.7324 81.5889C62.2459 83.0988 61.4132 85.1438 61.4131 87.2725V93.3184H55.4775C53.3677 93.3184 51.3474 94.1702 49.8604 95.6807C48.4667 97.0963 47.6476 98.9815 47.5508 100.966L47.541 101.363C47.541 103.492 48.3738 105.537 49.8604 107.047C51.3474 108.557 53.3677 109.409 55.4775 109.409H61.4131V115.454C61.4131 117.583 62.2459 119.628 63.7324 121.138C65.2195 122.648 67.2397 123.5 69.3496 123.5C71.4594 123.5 73.4798 122.648 74.9668 121.138C76.4532 119.628 77.2852 117.583 77.2852 115.454V109.409H83.2217C85.3315 109.409 87.3518 108.557 88.8389 107.047C90.3253 105.537 91.1572 103.492 91.1572 101.363C91.1571 99.2348 90.3251 97.1905 88.8389 95.6807C87.3518 94.1702 85.3315 93.3184 83.2217 93.3184H77.2852V87.2725Z" stroke="#372AAC" stroke-width="2"/>
<mask id="path-3-outside-1_1_25" maskUnits="userSpaceOnUse" x="214" y="49" width="76" height="107" fill="black">
<rect fill="white" x="214" y="49" width="76" height="107"/>
<path d="M236.464 51.6786H246.696V61.9107H236.464V51.6786ZM226.232 51.6786H236.464V61.9107H226.232V51.6786ZM226.232 61.9107H236.464V72.1429H226.232V61.9107ZM236.464 61.9107H246.696V72.1429H236.464V61.9107ZM246.696 61.9107H256.929V72.1429H246.696V61.9107ZM246.696 51.6786H256.929V61.9107H246.696V51.6786ZM256.929 51.6786H267.161V61.9107H256.929V51.6786ZM267.161 51.6786H277.393V61.9107H267.161V51.6786ZM267.161 61.9107H277.393V72.1429H267.161V61.9107ZM256.929 61.9107H267.161V72.1429H256.929V61.9107ZM267.161 72.1429H277.393V82.375H267.161V72.1429ZM277.393 61.9107H287.625V72.1429H277.393V61.9107ZM277.393 72.1429H287.625V82.375H277.393V72.1429ZM277.393 123.304H287.625V133.536H277.393V123.304ZM277.393 133.536H287.625V143.768H277.393V133.536ZM267.161 133.536H277.393V143.768H267.161V133.536ZM267.161 123.304H277.393V133.536H267.161V123.304ZM256.929 133.536H267.161V143.768H256.929V133.536ZM267.161 143.768H277.393V154H267.161V143.768ZM256.929 143.768H267.161V154H256.929V143.768ZM246.696 143.768H256.929V154H246.696V143.768ZM246.696 133.536H256.929V143.768H246.696V133.536ZM236.464 143.768H246.696V154H236.464V143.768ZM226.232 143.768H236.464V154H226.232V143.768ZM226.232 133.536H236.464V143.768H226.232V133.536ZM236.464 133.536H246.696V143.768H236.464V133.536ZM236.464 123.304H246.696V133.536H236.464V123.304ZM226.232 123.304H236.464V133.536H226.232V123.304ZM216 133.536H226.232V143.768H216V133.536ZM216 123.304H226.232V133.536H216V123.304ZM216 113.071H226.232V123.304H216V113.071ZM216 102.839H226.232V113.071H216V102.839ZM216 92.6071H226.232V102.839H216V92.6071ZM216 82.375H226.232V92.6071H216V82.375ZM216 72.1429H226.232V82.375H216V72.1429ZM226.232 72.1429H236.464V82.375H226.232V72.1429ZM216 61.9107H226.232V72.1429H216V61.9107ZM236.464 72.1429H246.696V82.375H236.464V72.1429ZM226.232 82.375H236.464V92.6071H226.232V82.375ZM226.232 92.6071H236.464V102.839H226.232V92.6071ZM226.232 102.839H236.464V113.071H226.232V102.839ZM226.232 113.071H236.464V123.304H226.232V113.071ZM277.393 113.071H287.625V123.304H277.393V113.071ZM267.161 113.071H277.393V123.304H267.161V113.071ZM267.161 102.839H277.393V113.071H267.161V102.839ZM277.393 102.839H287.625V113.071H277.393V102.839ZM277.393 92.6071H287.625V102.839H277.393V92.6071ZM267.161 92.6071H277.393V102.839H267.161V92.6071ZM256.929 92.6071H267.161V102.839H256.929V92.6071ZM246.696 92.6071H256.929V102.839H246.696V92.6071ZM246.696 102.839H256.929V113.071H246.696V102.839ZM256.929 102.839H267.161V113.071H256.929V102.839Z"/>
</mask>
<path d="M236.464 51.6786H246.696V61.9107H236.464V51.6786ZM226.232 51.6786H236.464V61.9107H226.232V51.6786ZM226.232 61.9107H236.464V72.1429H226.232V61.9107ZM236.464 61.9107H246.696V72.1429H236.464V61.9107ZM246.696 61.9107H256.929V72.1429H246.696V61.9107ZM246.696 51.6786H256.929V61.9107H246.696V51.6786ZM256.929 51.6786H267.161V61.9107H256.929V51.6786ZM267.161 51.6786H277.393V61.9107H267.161V51.6786ZM267.161 61.9107H277.393V72.1429H267.161V61.9107ZM256.929 61.9107H267.161V72.1429H256.929V61.9107ZM267.161 72.1429H277.393V82.375H267.161V72.1429ZM277.393 61.9107H287.625V72.1429H277.393V61.9107ZM277.393 72.1429H287.625V82.375H277.393V72.1429ZM277.393 123.304H287.625V133.536H277.393V123.304ZM277.393 133.536H287.625V143.768H277.393V133.536ZM267.161 133.536H277.393V143.768H267.161V133.536ZM267.161 123.304H277.393V133.536H267.161V123.304ZM256.929 133.536H267.161V143.768H256.929V133.536ZM267.161 143.768H277.393V154H267.161V143.768ZM256.929 143.768H267.161V154H256.929V143.768ZM246.696 143.768H256.929V154H246.696V143.768ZM246.696 133.536H256.929V143.768H246.696V133.536ZM236.464 143.768H246.696V154H236.464V143.768ZM226.232 143.768H236.464V154H226.232V143.768ZM226.232 133.536H236.464V143.768H226.232V133.536ZM236.464 133.536H246.696V143.768H236.464V133.536ZM236.464 123.304H246.696V133.536H236.464V123.304ZM226.232 123.304H236.464V133.536H226.232V123.304ZM216 133.536H226.232V143.768H216V133.536ZM216 123.304H226.232V133.536H216V123.304ZM216 113.071H226.232V123.304H216V113.071ZM216 102.839H226.232V113.071H216V102.839ZM216 92.6071H226.232V102.839H216V92.6071ZM216 82.375H226.232V92.6071H216V82.375ZM216 72.1429H226.232V82.375H216V72.1429ZM226.232 72.1429H236.464V82.375H226.232V72.1429ZM216 61.9107H226.232V72.1429H216V61.9107ZM236.464 72.1429H246.696V82.375H236.464V72.1429ZM226.232 82.375H236.464V92.6071H226.232V82.375ZM226.232 92.6071H236.464V102.839H226.232V92.6071ZM226.232 102.839H236.464V113.071H226.232V102.839ZM226.232 113.071H236.464V123.304H226.232V113.071ZM277.393 113.071H287.625V123.304H277.393V113.071ZM267.161 113.071H277.393V123.304H267.161V113.071ZM267.161 102.839H277.393V113.071H267.161V102.839ZM277.393 102.839H287.625V113.071H277.393V102.839ZM277.393 92.6071H287.625V102.839H277.393V92.6071ZM267.161 92.6071H277.393V102.839H267.161V92.6071ZM256.929 92.6071H267.161V102.839H256.929V92.6071ZM246.696 92.6071H256.929V102.839H246.696V92.6071ZM246.696 102.839H256.929V113.071H246.696V102.839ZM256.929 102.839H267.161V113.071H256.929V102.839Z" fill="#372AAC"/>
<path d="M236.464 51.6786V49.6786H234.464V51.6786H236.464ZM246.696 51.6786H248.696V49.6786H246.696V51.6786ZM246.696 61.9107V63.9107H248.696V61.9107H246.696ZM236.464 61.9107H234.464V63.9107H236.464V61.9107ZM226.232 51.6786V49.6786H224.232V51.6786H226.232ZM236.464 51.6786H238.464V49.6786H236.464V51.6786ZM236.464 61.9107V63.9107H238.464V61.9107H236.464ZM226.232 61.9107H224.232V63.9107H226.232V61.9107ZM226.232 61.9107V59.9107H224.232V61.9107H226.232ZM236.464 61.9107H238.464V59.9107H236.464V61.9107ZM236.464 72.1429V74.1429H238.464V72.1429H236.464ZM226.232 72.1429H224.232V74.1429H226.232V72.1429ZM236.464 61.9107V59.9107H234.464V61.9107H236.464ZM246.696 61.9107H248.696V59.9107H246.696V61.9107ZM246.696 72.1429V74.1429H248.696V72.1429H246.696ZM236.464 72.1429H234.464V74.1429H236.464V72.1429ZM246.696 61.9107V59.9107H244.696V61.9107H246.696ZM256.929 61.9107H258.929V59.9107H256.929V61.9107ZM256.929 72.1429V74.1429H258.929V72.1429H256.929ZM246.696 72.1429H244.696V74.1429H246.696V72.1429ZM246.696 51.6786V49.6786H244.696V51.6786H246.696ZM256.929 51.6786H258.929V49.6786H256.929V51.6786ZM256.929 61.9107V63.9107H258.929V61.9107H256.929ZM246.696 61.9107H244.696V63.9107H246.696V61.9107ZM256.929 51.6786V49.6786H254.929V51.6786H256.929ZM267.161 51.6786H269.161V49.6786H267.161V51.6786ZM267.161 61.9107V63.9107H269.161V61.9107H267.161ZM256.929 61.9107H254.929V63.9107H256.929V61.9107ZM267.161 51.6786V49.6786H265.161V51.6786H267.161ZM277.393 51.6786H279.393V49.6786H277.393V51.6786ZM277.393 61.9107V63.9107H279.393V61.9107H277.393ZM267.161 61.9107H265.161V63.9107H267.161V61.9107ZM267.161 61.9107V59.9107H265.161V61.9107H267.161ZM277.393 61.9107H279.393V59.9107H277.393V61.9107ZM277.393 72.1429V74.1429H279.393V72.1429H277.393ZM267.161 72.1429H265.161V74.1429H267.161V72.1429ZM256.929 61.9107V59.9107H254.929V61.9107H256.929ZM267.161 61.9107H269.161V59.9107H267.161V61.9107ZM267.161 72.1429V74.1429H269.161V72.1429H267.161ZM256.929 72.1429H254.929V74.1429H256.929V72.1429ZM267.161 72.1429V70.1429H265.161V72.1429H267.161ZM277.393 72.1429H279.393V70.1429H277.393V72.1429ZM277.393 82.375V84.375H279.393V82.375H277.393ZM267.161 82.375H265.161V84.375H267.161V82.375ZM277.393 61.9107V59.9107H275.393V61.9107H277.393ZM287.625 61.9107H289.625V59.9107H287.625V61.9107ZM287.625 72.1429V74.1429H289.625V72.1429H287.625ZM277.393 72.1429H275.393V74.1429H277.393V72.1429ZM277.393 72.1429V70.1429H275.393V72.1429H277.393ZM287.625 72.1429H289.625V70.1429H287.625V72.1429ZM287.625 82.375V84.375H289.625V82.375H287.625ZM277.393 82.375H275.393V84.375H277.393V82.375ZM277.393 123.304V121.304H275.393V123.304H277.393ZM287.625 123.304H289.625V121.304H287.625V123.304ZM287.625 133.536V135.536H289.625V133.536H287.625ZM277.393 133.536H275.393V135.536H277.393V133.536ZM277.393 133.536V131.536H275.393V133.536H277.393ZM287.625 133.536H289.625V131.536H287.625V133.536ZM287.625 143.768V145.768H289.625V143.768H287.625ZM277.393 143.768H275.393V145.768H277.393V143.768ZM267.161 133.536V131.536H265.161V133.536H267.161ZM277.393 133.536H279.393V131.536H277.393V133.536ZM277.393 143.768V145.768H279.393V143.768H277.393ZM267.161 143.768H265.161V145.768H267.161V143.768ZM267.161 123.304V121.304H265.161V123.304H267.161ZM277.393 123.304H279.393V121.304H277.393V123.304ZM277.393 133.536V135.536H279.393V133.536H277.393ZM267.161 133.536H265.161V135.536H267.161V133.536ZM256.929 133.536V131.536H254.929V133.536H256.929ZM267.161 133.536H269.161V131.536H267.161V133.536ZM267.161 143.768V145.768H269.161V143.768H267.161ZM256.929 143.768H254.929V145.768H256.929V143.768ZM267.161 143.768V141.768H265.161V143.768H267.161ZM277.393 143.768H279.393V141.768H277.393V143.768ZM277.393 154V156H279.393V154H277.393ZM267.161 154H265.161V156H267.161V154ZM256.929 143.768V141.768H254.929V143.768H256.929ZM267.161 143.768H269.161V141.768H267.161V143.768ZM267.161 154V156H269.161V154H267.161ZM256.929 154H254.929V156H256.929V154ZM246.696 143.768V141.768H244.696V143.768H246.696ZM256.929 143.768H258.929V141.768H256.929V143.768ZM256.929 154V156H258.929V154H256.929ZM246.696 154H244.696V156H246.696V154ZM246.696 133.536V131.536H244.696V133.536H246.696ZM256.929 133.536H258.929V131.536H256.929V133.536ZM256.929 143.768V145.768H258.929V143.768H256.929ZM246.696 143.768H244.696V145.768H246.696V143.768ZM236.464 143.768V141.768H234.464V143.768H236.464ZM246.696 143.768H248.696V141.768H246.696V143.768ZM246.696 154V156H248.696V154H246.696ZM236.464 154H234.464V156H236.464V154ZM226.232 143.768V141.768H224.232V143.768H226.232ZM236.464 143.768H238.464V141.768H236.464V143.768ZM236.464 154V156H238.464V154H236.464ZM226.232 154H224.232V156H226.232V154ZM226.232 133.536V131.536H224.232V133.536H226.232ZM236.464 133.536H238.464V131.536H236.464V133.536ZM236.464 143.768V145.768H238.464V143.768H236.464ZM226.232 143.768H224.232V145.768H226.232V143.768ZM236.464 133.536V131.536H234.464V133.536H236.464ZM246.696 133.536H248.696V131.536H246.696V133.536ZM246.696 143.768V145.768H248.696V143.768H246.696ZM236.464 143.768H234.464V145.768H236.464V143.768ZM236.464 123.304V121.304H234.464V123.304H236.464ZM246.696 123.304H248.696V121.304H246.696V123.304ZM246.696 133.536V135.536H248.696V133.536H246.696ZM236.464 133.536H234.464V135.536H236.464V133.536ZM226.232 123.304V121.304H224.232V123.304H226.232ZM236.464 123.304H238.464V121.304H236.464V123.304ZM236.464 133.536V135.536H238.464V133.536H236.464ZM226.232 133.536H224.232V135.536H226.232V133.536ZM216 133.536V131.536H214V133.536H216ZM226.232 133.536H228.232V131.536H226.232V133.536ZM226.232 143.768V145.768H228.232V143.768H226.232ZM216 143.768H214V145.768H216V143.768ZM216 123.304V121.304H214V123.304H216ZM226.232 123.304H228.232V121.304H226.232V123.304ZM226.232 133.536V135.536H228.232V133.536H226.232ZM216 133.536H214V135.536H216V133.536ZM216 113.071V111.071H214V113.071H216ZM226.232 113.071H228.232V111.071H226.232V113.071ZM226.232 123.304V125.304H228.232V123.304H226.232ZM216 123.304H214V125.304H216V123.304ZM216 102.839V100.839H214V102.839H216ZM226.232 102.839H228.232V100.839H226.232V102.839ZM226.232 113.071V115.071H228.232V113.071H226.232ZM216 113.071H214V115.071H216V113.071ZM216 92.6071V90.6071H214V92.6071H216ZM226.232 92.6071H228.232V90.6071H226.232V92.6071ZM226.232 102.839V104.839H228.232V102.839H226.232ZM216 102.839H214V104.839H216V102.839ZM216 82.375V80.375H214V82.375H216ZM226.232 82.375H228.232V80.375H226.232V82.375ZM226.232 92.6071V94.6071H228.232V92.6071H226.232ZM216 92.6071H214V94.6071H216V92.6071ZM216 72.1429V70.1429H214V72.1429H216ZM226.232 72.1429H228.232V70.1429H226.232V72.1429ZM226.232 82.375V84.375H228.232V82.375H226.232ZM216 82.375H214V84.375H216V82.375ZM226.232 72.1429V70.1429H224.232V72.1429H226.232ZM236.464 72.1429H238.464V70.1429H236.464V72.1429ZM236.464 82.375V84.375H238.464V82.375H236.464ZM226.232 82.375H224.232V84.375H226.232V82.375ZM216 61.9107V59.9107H214V61.9107H216ZM226.232 61.9107H228.232V59.9107H226.232V61.9107ZM226.232 72.1429V74.1429H228.232V72.1429H226.232ZM216 72.1429H214V74.1429H216V72.1429ZM236.464 72.1429V70.1429H234.464V72.1429H236.464ZM246.696 72.1429H248.696V70.1429H246.696V72.1429ZM246.696 82.375V84.375H248.696V82.375H246.696ZM236.464 82.375H234.464V84.375H236.464V82.375ZM226.232 82.375V80.375H224.232V82.375H226.232ZM236.464 82.375H238.464V80.375H236.464V82.375ZM236.464 92.6071V94.6071H238.464V92.6071H236.464ZM226.232 92.6071H224.232V94.6071H226.232V92.6071ZM226.232 92.6071V90.6071H224.232V92.6071H226.232ZM236.464 92.6071H238.464V90.6071H236.464V92.6071ZM236.464 102.839V104.839H238.464V102.839H236.464ZM226.232 102.839H224.232V104.839H226.232V102.839ZM226.232 102.839V100.839H224.232V102.839H226.232ZM236.464 102.839H238.464V100.839H236.464V102.839ZM236.464 113.071V115.071H238.464V113.071H236.464ZM226.232 113.071H224.232V115.071H226.232V113.071ZM226.232 113.071V111.071H224.232V113.071H226.232ZM236.464 113.071H238.464V111.071H236.464V113.071ZM236.464 123.304V125.304H238.464V123.304H236.464ZM226.232 123.304H224.232V125.304H226.232V123.304ZM277.393 113.071V111.071H275.393V113.071H277.393ZM287.625 113.071H289.625V111.071H287.625V113.071ZM287.625 123.304V125.304H289.625V123.304H287.625ZM277.393 123.304H275.393V125.304H277.393V123.304ZM267.161 113.071V111.071H265.161V113.071H267.161ZM277.393 113.071H279.393V111.071H277.393V113.071ZM277.393 123.304V125.304H279.393V123.304H277.393ZM267.161 123.304H265.161V125.304H267.161V123.304ZM267.161 102.839V100.839H265.161V102.839H267.161ZM277.393 102.839H279.393V100.839H277.393V102.839ZM277.393 113.071V115.071H279.393V113.071H277.393ZM267.161 113.071H265.161V115.071H267.161V113.071ZM277.393 102.839V100.839H275.393V102.839H277.393ZM287.625 102.839H289.625V100.839H287.625V102.839ZM287.625 113.071V115.071H289.625V113.071H287.625ZM277.393 113.071H275.393V115.071H277.393V113.071ZM277.393 92.6071V90.6071H275.393V92.6071H277.393ZM287.625 92.6071H289.625V90.6071H287.625V92.6071ZM287.625 102.839V104.839H289.625V102.839H287.625ZM277.393 102.839H275.393V104.839H277.393V102.839ZM267.161 92.6071V90.6071H265.161V92.6071H267.161ZM277.393 92.6071H279.393V90.6071H277.393V92.6071ZM277.393 102.839V104.839H279.393V102.839H277.393ZM267.161 102.839H265.161V104.839H267.161V102.839ZM256.929 92.6071V90.6071H254.929V92.6071H256.929ZM267.161 92.6071H269.161V90.6071H267.161V92.6071ZM267.161 102.839V104.839H269.161V102.839H267.161ZM256.929 102.839H254.929V104.839H256.929V102.839ZM246.696 92.6071V90.6071H244.696V92.6071H246.696ZM256.929 92.6071H258.929V90.6071H256.929V92.6071ZM256.929 102.839V104.839H258.929V102.839H256.929ZM246.696 102.839H244.696V104.839H246.696V102.839ZM246.696 102.839V100.839H244.696V102.839H246.696ZM256.929 102.839H258.929V100.839H256.929V102.839ZM256.929 113.071V115.071H258.929V113.071H256.929ZM246.696 113.071H244.696V115.071H246.696V113.071ZM256.929 102.839V100.839H254.929V102.839H256.929ZM267.161 102.839H269.161V100.839H267.161V102.839ZM267.161 113.071V115.071H269.161V113.071H267.161ZM256.929 113.071H254.929V115.071H256.929V113.071ZM236.464 51.6786V53.6786H246.696V51.6786V49.6786H236.464V51.6786ZM246.696 51.6786H244.696V61.9107H246.696H248.696V51.6786H246.696ZM246.696 61.9107V59.9107H236.464V61.9107V63.9107H246.696V61.9107ZM236.464 61.9107H238.464V51.6786H236.464H234.464V61.9107H236.464ZM226.232 51.6786V53.6786H236.464V51.6786V49.6786H226.232V51.6786ZM236.464 51.6786H234.464V61.9107H236.464H238.464V51.6786H236.464ZM236.464 61.9107V59.9107H226.232V61.9107V63.9107H236.464V61.9107ZM226.232 61.9107H228.232V51.6786H226.232H224.232V61.9107H226.232ZM226.232 61.9107V63.9107H236.464V61.9107V59.9107H226.232V61.9107ZM236.464 61.9107H234.464V72.1429H236.464H238.464V61.9107H236.464ZM236.464 72.1429V70.1429H226.232V72.1429V74.1429H236.464V72.1429ZM226.232 72.1429H228.232V61.9107H226.232H224.232V72.1429H226.232ZM236.464 61.9107V63.9107H246.696V61.9107V59.9107H236.464V61.9107ZM246.696 61.9107H244.696V72.1429H246.696H248.696V61.9107H246.696ZM246.696 72.1429V70.1429H236.464V72.1429V74.1429H246.696V72.1429ZM236.464 72.1429H238.464V61.9107H236.464H234.464V72.1429H236.464ZM246.696 61.9107V63.9107H256.929V61.9107V59.9107H246.696V61.9107ZM256.929 61.9107H254.929V72.1429H256.929H258.929V61.9107H256.929ZM256.929 72.1429V70.1429H246.696V72.1429V74.1429H256.929V72.1429ZM246.696 72.1429H248.696V61.9107H246.696H244.696V72.1429H246.696ZM246.696 51.6786V53.6786H256.929V51.6786V49.6786H246.696V51.6786ZM256.929 51.6786H254.929V61.9107H256.929H258.929V51.6786H256.929ZM256.929 61.9107V59.9107H246.696V61.9107V63.9107H256.929V61.9107ZM246.696 61.9107H248.696V51.6786H246.696H244.696V61.9107H246.696ZM256.929 51.6786V53.6786H267.161V51.6786V49.6786H256.929V51.6786ZM267.161 51.6786H265.161V61.9107H267.161H269.161V51.6786H267.161ZM267.161 61.9107V59.9107H256.929V61.9107V63.9107H267.161V61.9107ZM256.929 61.9107H258.929V51.6786H256.929H254.929V61.9107H256.929ZM267.161 51.6786V53.6786H277.393V51.6786V49.6786H267.161V51.6786ZM277.393 51.6786H275.393V61.9107H277.393H279.393V51.6786H277.393ZM277.393 61.9107V59.9107H267.161V61.9107V63.9107H277.393V61.9107ZM267.161 61.9107H269.161V51.6786H267.161H265.161V61.9107H267.161ZM267.161 61.9107V63.9107H277.393V61.9107V59.9107H267.161V61.9107ZM277.393 61.9107H275.393V72.1429H277.393H279.393V61.9107H277.393ZM277.393 72.1429V70.1429H267.161V72.1429V74.1429H277.393V72.1429ZM267.161 72.1429H269.161V61.9107H267.161H265.161V72.1429H267.161ZM256.929 61.9107V63.9107H267.161V61.9107V59.9107H256.929V61.9107ZM267.161 61.9107H265.161V72.1429H267.161H269.161V61.9107H267.161ZM267.161 72.1429V70.1429H256.929V72.1429V74.1429H267.161V72.1429ZM256.929 72.1429H258.929V61.9107H256.929H254.929V72.1429H256.929ZM267.161 72.1429V74.1429H277.393V72.1429V70.1429H267.161V72.1429ZM277.393 72.1429H275.393V82.375H277.393H279.393V72.1429H277.393ZM277.393 82.375V80.375H267.161V82.375V84.375H277.393V82.375ZM267.161 82.375H269.161V72.1429H267.161H265.161V82.375H267.161ZM277.393 61.9107V63.9107H287.625V61.9107V59.9107H277.393V61.9107ZM287.625 61.9107H285.625V72.1429H287.625H289.625V61.9107H287.625ZM287.625 72.1429V70.1429H277.393V72.1429V74.1429H287.625V72.1429ZM277.393 72.1429H279.393V61.9107H277.393H275.393V72.1429H277.393ZM277.393 72.1429V74.1429H287.625V72.1429V70.1429H277.393V72.1429ZM287.625 72.1429H285.625V82.375H287.625H289.625V72.1429H287.625ZM287.625 82.375V80.375H277.393V82.375V84.375H287.625V82.375ZM277.393 82.375H279.393V72.1429H277.393H275.393V82.375H277.393ZM277.393 123.304V125.304H287.625V123.304V121.304H277.393V123.304ZM287.625 123.304H285.625V133.536H287.625H289.625V123.304H287.625ZM287.625 133.536V131.536H277.393V133.536V135.536H287.625V133.536ZM277.393 133.536H279.393V123.304H277.393H275.393V133.536H277.393ZM277.393 133.536V135.536H287.625V133.536V131.536H277.393V133.536ZM287.625 133.536H285.625V143.768H287.625H289.625V133.536H287.625ZM287.625 143.768V141.768H277.393V143.768V145.768H287.625V143.768ZM277.393 143.768H279.393V133.536H277.393H275.393V143.768H277.393ZM267.161 133.536V135.536H277.393V133.536V131.536H267.161V133.536ZM277.393 133.536H275.393V143.768H277.393H279.393V133.536H277.393ZM277.393 143.768V141.768H267.161V143.768V145.768H277.393V143.768ZM267.161 143.768H269.161V133.536H267.161H265.161V143.768H267.161ZM267.161 123.304V125.304H277.393V123.304V121.304H267.161V123.304ZM277.393 123.304H275.393V133.536H277.393H279.393V123.304H277.393ZM277.393 133.536V131.536H267.161V133.536V135.536H277.393V133.536ZM267.161 133.536H269.161V123.304H267.161H265.161V133.536H267.161ZM256.929 133.536V135.536H267.161V133.536V131.536H256.929V133.536ZM267.161 133.536H265.161V143.768H267.161H269.161V133.536H267.161ZM267.161 143.768V141.768H256.929V143.768V145.768H267.161V143.768ZM256.929 143.768H258.929V133.536H256.929H254.929V143.768H256.929ZM267.161 143.768V145.768H277.393V143.768V141.768H267.161V143.768ZM277.393 143.768H275.393V154H277.393H279.393V143.768H277.393ZM277.393 154V152H267.161V154V156H277.393V154ZM267.161 154H269.161V143.768H267.161H265.161V154H267.161ZM256.929 143.768V145.768H267.161V143.768V141.768H256.929V143.768ZM267.161 143.768H265.161V154H267.161H269.161V143.768H267.161ZM267.161 154V152H256.929V154V156H267.161V154ZM256.929 154H258.929V143.768H256.929H254.929V154H256.929ZM246.696 143.768V145.768H256.929V143.768V141.768H246.696V143.768ZM256.929 143.768H254.929V154H256.929H258.929V143.768H256.929ZM256.929 154V152H246.696V154V156H256.929V154ZM246.696 154H248.696V143.768H246.696H244.696V154H246.696ZM246.696 133.536V135.536H256.929V133.536V131.536H246.696V133.536ZM256.929 133.536H254.929V143.768H256.929H258.929V133.536H256.929ZM256.929 143.768V141.768H246.696V143.768V145.768H256.929V143.768ZM246.696 143.768H248.696V133.536H246.696H244.696V143.768H246.696ZM236.464 143.768V145.768H246.696V143.768V141.768H236.464V143.768ZM246.696 143.768H244.696V154H246.696H248.696V143.768H246.696ZM246.696 154V152H236.464V154V156H246.696V154ZM236.464 154H238.464V143.768H236.464H234.464V154H236.464ZM226.232 143.768V145.768H236.464V143.768V141.768H226.232V143.768ZM236.464 143.768H234.464V154H236.464H238.464V143.768H236.464ZM236.464 154V152H226.232V154V156H236.464V154ZM226.232 154H228.232V143.768H226.232H224.232V154H226.232ZM226.232 133.536V135.536H236.464V133.536V131.536H226.232V133.536ZM236.464 133.536H234.464V143.768H236.464H238.464V133.536H236.464ZM236.464 143.768V141.768H226.232V143.768V145.768H236.464V143.768ZM226.232 143.768H228.232V133.536H226.232H224.232V143.768H226.232ZM236.464 133.536V135.536H246.696V133.536V131.536H236.464V133.536ZM246.696 133.536H244.696V143.768H246.696H248.696V133.536H246.696ZM246.696 143.768V141.768H236.464V143.768V145.768H246.696V143.768ZM236.464 143.768H238.464V133.536H236.464H234.464V143.768H236.464ZM236.464 123.304V125.304H246.696V123.304V121.304H236.464V123.304ZM246.696 123.304H244.696V133.536H246.696H248.696V123.304H246.696ZM246.696 133.536V131.536H236.464V133.536V135.536H246.696V133.536ZM236.464 133.536H238.464V123.304H236.464H234.464V133.536H236.464ZM226.232 123.304V125.304H236.464V123.304V121.304H226.232V123.304ZM236.464 123.304H234.464V133.536H236.464H238.464V123.304H236.464ZM236.464 133.536V131.536H226.232V133.536V135.536H236.464V133.536ZM226.232 133.536H228.232V123.304H226.232H224.232V133.536H226.232ZM216 133.536V135.536H226.232V133.536V131.536H216V133.536ZM226.232 133.536H224.232V143.768H226.232H228.232V133.536H226.232ZM226.232 143.768V141.768H216V143.768V145.768H226.232V143.768ZM216 143.768H218V133.536H216H214V143.768H216ZM216 123.304V125.304H226.232V123.304V121.304H216V123.304ZM226.232 123.304H224.232V133.536H226.232H228.232V123.304H226.232ZM226.232 133.536V131.536H216V133.536V135.536H226.232V133.536ZM216 133.536H218V123.304H216H214V133.536H216ZM216 113.071V115.071H226.232V113.071V111.071H216V113.071ZM226.232 113.071H224.232V123.304H226.232H228.232V113.071H226.232ZM226.232 123.304V121.304H216V123.304V125.304H226.232V123.304ZM216 123.304H218V113.071H216H214V123.304H216ZM216 102.839V104.839H226.232V102.839V100.839H216V102.839ZM226.232 102.839H224.232V113.071H226.232H228.232V102.839H226.232ZM226.232 113.071V111.071H216V113.071V115.071H226.232V113.071ZM216 113.071H218V102.839H216H214V113.071H216ZM216 92.6071V94.6071H226.232V92.6071V90.6071H216V92.6071ZM226.232 92.6071H224.232V102.839H226.232H228.232V92.6071H226.232ZM226.232 102.839V100.839H216V102.839V104.839H226.232V102.839ZM216 102.839H218V92.6071H216H214V102.839H216ZM216 82.375V84.375H226.232V82.375V80.375H216V82.375ZM226.232 82.375H224.232V92.6071H226.232H228.232V82.375H226.232ZM226.232 92.6071V90.6071H216V92.6071V94.6071H226.232V92.6071ZM216 92.6071H218V82.375H216H214V92.6071H216ZM216 72.1429V74.1429H226.232V72.1429V70.1429H216V72.1429ZM226.232 72.1429H224.232V82.375H226.232H228.232V72.1429H226.232ZM226.232 82.375V80.375H216V82.375V84.375H226.232V82.375ZM216 82.375H218V72.1429H216H214V82.375H216ZM226.232 72.1429V74.1429H236.464V72.1429V70.1429H226.232V72.1429ZM236.464 72.1429H234.464V82.375H236.464H238.464V72.1429H236.464ZM236.464 82.375V80.375H226.232V82.375V84.375H236.464V82.375ZM226.232 82.375H228.232V72.1429H226.232H224.232V82.375H226.232ZM216 61.9107V63.9107H226.232V61.9107V59.9107H216V61.9107ZM226.232 61.9107H224.232V72.1429H226.232H228.232V61.9107H226.232ZM226.232 72.1429V70.1429H216V72.1429V74.1429H226.232V72.1429ZM216 72.1429H218V61.9107H216H214V72.1429H216ZM236.464 72.1429V74.1429H246.696V72.1429V70.1429H236.464V72.1429ZM246.696 72.1429H244.696V82.375H246.696H248.696V72.1429H246.696ZM246.696 82.375V80.375H236.464V82.375V84.375H246.696V82.375ZM236.464 82.375H238.464V72.1429H236.464H234.464V82.375H236.464ZM226.232 82.375V84.375H236.464V82.375V80.375H226.232V82.375ZM236.464 82.375H234.464V92.6071H236.464H238.464V82.375H236.464ZM236.464 92.6071V90.6071H226.232V92.6071V94.6071H236.464V92.6071ZM226.232 92.6071H228.232V82.375H226.232H224.232V92.6071H226.232ZM226.232 92.6071V94.6071H236.464V92.6071V90.6071H226.232V92.6071ZM236.464 92.6071H234.464V102.839H236.464H238.464V92.6071H236.464ZM236.464 102.839V100.839H226.232V102.839V104.839H236.464V102.839ZM226.232 102.839H228.232V92.6071H226.232H224.232V102.839H226.232ZM226.232 102.839V104.839H236.464V102.839V100.839H226.232V102.839ZM236.464 102.839H234.464V113.071H236.464H238.464V102.839H236.464ZM236.464 113.071V111.071H226.232V113.071V115.071H236.464V113.071ZM226.232 113.071H228.232V102.839H226.232H224.232V113.071H226.232ZM226.232 113.071V115.071H236.464V113.071V111.071H226.232V113.071ZM236.464 113.071H234.464V123.304H236.464H238.464V113.071H236.464ZM236.464 123.304V121.304H226.232V123.304V125.304H236.464V123.304ZM226.232 123.304H228.232V113.071H226.232H224.232V123.304H226.232ZM277.393 113.071V115.071H287.625V113.071V111.071H277.393V113.071ZM287.625 113.071H285.625V123.304H287.625H289.625V113.071H287.625ZM287.625 123.304V121.304H277.393V123.304V125.304H287.625V123.304ZM277.393 123.304H279.393V113.071H277.393H275.393V123.304H277.393ZM267.161 113.071V115.071H277.393V113.071V111.071H267.161V113.071ZM277.393 113.071H275.393V123.304H277.393H279.393V113.071H277.393ZM277.393 123.304V121.304H267.161V123.304V125.304H277.393V123.304ZM267.161 123.304H269.161V113.071H267.161H265.161V123.304H267.161ZM267.161 102.839V104.839H277.393V102.839V100.839H267.161V102.839ZM277.393 102.839H275.393V113.071H277.393H279.393V102.839H277.393ZM277.393 113.071V111.071H267.161V113.071V115.071H277.393V113.071ZM267.161 113.071H269.161V102.839H267.161H265.161V113.071H267.161ZM277.393 102.839V104.839H287.625V102.839V100.839H277.393V102.839ZM287.625 102.839H285.625V113.071H287.625H289.625V102.839H287.625ZM287.625 113.071V111.071H277.393V113.071V115.071H287.625V113.071ZM277.393 113.071H279.393V102.839H277.393H275.393V113.071H277.393ZM277.393 92.6071V94.6071H287.625V92.6071V90.6071H277.393V92.6071ZM287.625 92.6071H285.625V102.839H287.625H289.625V92.6071H287.625ZM287.625 102.839V100.839H277.393V102.839V104.839H287.625V102.839ZM277.393 102.839H279.393V92.6071H277.393H275.393V102.839H277.393ZM267.161 92.6071V94.6071H277.393V92.6071V90.6071H267.161V92.6071ZM277.393 92.6071H275.393V102.839H277.393H279.393V92.6071H277.393ZM277.393 102.839V100.839H267.161V102.839V104.839H277.393V102.839ZM267.161 102.839H269.161V92.6071H267.161H265.161V102.839H267.161ZM256.929 92.6071V94.6071H267.161V92.6071V90.6071H256.929V92.6071ZM267.161 92.6071H265.161V102.839H267.161H269.161V92.6071H267.161ZM267.161 102.839V100.839H256.929V102.839V104.839H267.161V102.839ZM256.929 102.839H258.929V92.6071H256.929H254.929V102.839H256.929ZM246.696 92.6071V94.6071H256.929V92.6071V90.6071H246.696V92.6071ZM256.929 92.6071H254.929V102.839H256.929H258.929V92.6071H256.929ZM256.929 102.839V100.839H246.696V102.839V104.839H256.929V102.839ZM246.696 102.839H248.696V92.6071H246.696H244.696V102.839H246.696ZM246.696 102.839V104.839H256.929V102.839V100.839H246.696V102.839ZM256.929 102.839H254.929V113.071H256.929H258.929V102.839H256.929ZM256.929 113.071V111.071H246.696V113.071V115.071H256.929V113.071ZM246.696 113.071H248.696V102.839H246.696H244.696V113.071H246.696ZM256.929 102.839V104.839H267.161V102.839V100.839H256.929V102.839ZM267.161 102.839H265.161V113.071H267.161H269.161V102.839H267.161ZM267.161 113.071V111.071H256.929V113.071V115.071H267.161V113.071ZM256.929 113.071H258.929V102.839H256.929H254.929V113.071H256.929Z" fill="black" mask="url(#path-3-outside-1_1_25)"/>
<mask id="path-5-outside-2_1_25" maskUnits="userSpaceOnUse" x="291" y="49" width="76" height="107" fill="black">
<rect fill="white" x="291" y="49" width="76" height="107"/>
<path d="M313.464 51.6786H323.696V61.9107H313.464V51.6786ZM303.232 51.6786H313.464V61.9107H303.232V51.6786ZM303.232 61.9107H313.464V72.1429H303.232V61.9107ZM313.464 61.9107H323.696V72.1429H313.464V61.9107ZM323.696 61.9107H333.929V72.1429H323.696V61.9107ZM323.696 51.6786H333.929V61.9107H323.696V51.6786ZM333.929 51.6786H344.161V61.9107H333.929V51.6786ZM344.161 51.6786H354.393V61.9107H344.161V51.6786ZM344.161 61.9107H354.393V72.1429H344.161V61.9107ZM333.929 61.9107H344.161V72.1429H333.929V61.9107ZM344.161 72.1429H354.393V82.375H344.161V72.1429ZM354.393 61.9107H364.625V72.1429H354.393V61.9107ZM354.393 72.1429H364.625V82.375H354.393V72.1429ZM354.393 123.304H364.625V133.536H354.393V123.304ZM354.393 133.536H364.625V143.768H354.393V133.536ZM344.161 133.536H354.393V143.768H344.161V133.536ZM344.161 123.304H354.393V133.536H344.161V123.304ZM333.929 133.536H344.161V143.768H333.929V133.536ZM344.161 143.768H354.393V154H344.161V143.768ZM333.929 143.768H344.161V154H333.929V143.768ZM323.696 143.768H333.929V154H323.696V143.768ZM323.696 133.536H333.929V143.768H323.696V133.536ZM313.464 143.768H323.696V154H313.464V143.768ZM303.232 143.768H313.464V154H303.232V143.768ZM303.232 133.536H313.464V143.768H303.232V133.536ZM313.464 133.536H323.696V143.768H313.464V133.536ZM313.464 123.304H323.696V133.536H313.464V123.304ZM303.232 123.304H313.464V133.536H303.232V123.304ZM293 133.536H303.232V143.768H293V133.536ZM293 123.304H303.232V133.536H293V123.304ZM293 113.071H303.232V123.304H293V113.071ZM293 102.839H303.232V113.071H293V102.839ZM293 92.6071H303.232V102.839H293V92.6071ZM293 82.375H303.232V92.6071H293V82.375ZM293 72.1429H303.232V82.375H293V72.1429ZM303.232 72.1429H313.464V82.375H303.232V72.1429ZM293 61.9107H303.232V72.1429H293V61.9107ZM313.464 72.1429H323.696V82.375H313.464V72.1429ZM303.232 82.375H313.464V92.6071H303.232V82.375ZM303.232 92.6071H313.464V102.839H303.232V92.6071ZM303.232 102.839H313.464V113.071H303.232V102.839ZM303.232 113.071H313.464V123.304H303.232V113.071ZM354.393 113.071H364.625V123.304H354.393V113.071ZM344.161 113.071H354.393V123.304H344.161V113.071ZM344.161 102.839H354.393V113.071H344.161V102.839ZM354.393 102.839H364.625V113.071H354.393V102.839ZM354.393 92.6071H364.625V102.839H354.393V92.6071ZM344.161 92.6071H354.393V102.839H344.161V92.6071ZM333.929 92.6071H344.161V102.839H333.929V92.6071ZM323.696 92.6071H333.929V102.839H323.696V92.6071ZM323.696 102.839H333.929V113.071H323.696V102.839ZM333.929 102.839H344.161V113.071H333.929V102.839Z"/>
</mask>
<path d="M313.464 51.6786H323.696V61.9107H313.464V51.6786ZM303.232 51.6786H313.464V61.9107H303.232V51.6786ZM303.232 61.9107H313.464V72.1429H303.232V61.9107ZM313.464 61.9107H323.696V72.1429H313.464V61.9107ZM323.696 61.9107H333.929V72.1429H323.696V61.9107ZM323.696 51.6786H333.929V61.9107H323.696V51.6786ZM333.929 51.6786H344.161V61.9107H333.929V51.6786ZM344.161 51.6786H354.393V61.9107H344.161V51.6786ZM344.161 61.9107H354.393V72.1429H344.161V61.9107ZM333.929 61.9107H344.161V72.1429H333.929V61.9107ZM344.161 72.1429H354.393V82.375H344.161V72.1429ZM354.393 61.9107H364.625V72.1429H354.393V61.9107ZM354.393 72.1429H364.625V82.375H354.393V72.1429ZM354.393 123.304H364.625V133.536H354.393V123.304ZM354.393 133.536H364.625V143.768H354.393V133.536ZM344.161 133.536H354.393V143.768H344.161V133.536ZM344.161 123.304H354.393V133.536H344.161V123.304ZM333.929 133.536H344.161V143.768H333.929V133.536ZM344.161 143.768H354.393V154H344.161V143.768ZM333.929 143.768H344.161V154H333.929V143.768ZM323.696 143.768H333.929V154H323.696V143.768ZM323.696 133.536H333.929V143.768H323.696V133.536ZM313.464 143.768H323.696V154H313.464V143.768ZM303.232 143.768H313.464V154H303.232V143.768ZM303.232 133.536H313.464V143.768H303.232V133.536ZM313.464 133.536H323.696V143.768H313.464V133.536ZM313.464 123.304H323.696V133.536H313.464V123.304ZM303.232 123.304H313.464V133.536H303.232V123.304ZM293 133.536H303.232V143.768H293V133.536ZM293 123.304H303.232V133.536H293V123.304ZM293 113.071H303.232V123.304H293V113.071ZM293 102.839H303.232V113.071H293V102.839ZM293 92.6071H303.232V102.839H293V92.6071ZM293 82.375H303.232V92.6071H293V82.375ZM293 72.1429H303.232V82.375H293V72.1429ZM303.232 72.1429H313.464V82.375H303.232V72.1429ZM293 61.9107H303.232V72.1429H293V61.9107ZM313.464 72.1429H323.696V82.375H313.464V72.1429ZM303.232 82.375H313.464V92.6071H303.232V82.375ZM303.232 92.6071H313.464V102.839H303.232V92.6071ZM303.232 102.839H313.464V113.071H303.232V102.839ZM303.232 113.071H313.464V123.304H303.232V113.071ZM354.393 113.071H364.625V123.304H354.393V113.071ZM344.161 113.071H354.393V123.304H344.161V113.071ZM344.161 102.839H354.393V113.071H344.161V102.839ZM354.393 102.839H364.625V113.071H354.393V102.839ZM354.393 92.6071H364.625V102.839H354.393V92.6071ZM344.161 92.6071H354.393V102.839H344.161V92.6071ZM333.929 92.6071H344.161V102.839H333.929V92.6071ZM323.696 92.6071H333.929V102.839H323.696V92.6071ZM323.696 102.839H333.929V113.071H323.696V102.839ZM333.929 102.839H344.161V113.071H333.929V102.839Z" fill="#09090B"/>
<path d="M313.464 51.6786V49.6786H311.464V51.6786H313.464ZM323.696 51.6786H325.696V49.6786H323.696V51.6786ZM323.696 61.9107V63.9107H325.696V61.9107H323.696ZM313.464 61.9107H311.464V63.9107H313.464V61.9107ZM303.232 51.6786V49.6786H301.232V51.6786H303.232ZM313.464 51.6786H315.464V49.6786H313.464V51.6786ZM313.464 61.9107V63.9107H315.464V61.9107H313.464ZM303.232 61.9107H301.232V63.9107H303.232V61.9107ZM303.232 61.9107V59.9107H301.232V61.9107H303.232ZM313.464 61.9107H315.464V59.9107H313.464V61.9107ZM313.464 72.1429V74.1429H315.464V72.1429H313.464ZM303.232 72.1429H301.232V74.1429H303.232V72.1429ZM313.464 61.9107V59.9107H311.464V61.9107H313.464ZM323.696 61.9107H325.696V59.9107H323.696V61.9107ZM323.696 72.1429V74.1429H325.696V72.1429H323.696ZM313.464 72.1429H311.464V74.1429H313.464V72.1429ZM323.696 61.9107V59.9107H321.696V61.9107H323.696ZM333.929 61.9107H335.929V59.9107H333.929V61.9107ZM333.929 72.1429V74.1429H335.929V72.1429H333.929ZM323.696 72.1429H321.696V74.1429H323.696V72.1429ZM323.696 51.6786V49.6786H321.696V51.6786H323.696ZM333.929 51.6786H335.929V49.6786H333.929V51.6786ZM333.929 61.9107V63.9107H335.929V61.9107H333.929ZM323.696 61.9107H321.696V63.9107H323.696V61.9107ZM333.929 51.6786V49.6786H331.929V51.6786H333.929ZM344.161 51.6786H346.161V49.6786H344.161V51.6786ZM344.161 61.9107V63.9107H346.161V61.9107H344.161ZM333.929 61.9107H331.929V63.9107H333.929V61.9107ZM344.161 51.6786V49.6786H342.161V51.6786H344.161ZM354.393 51.6786H356.393V49.6786H354.393V51.6786ZM354.393 61.9107V63.9107H356.393V61.9107H354.393ZM344.161 61.9107H342.161V63.9107H344.161V61.9107ZM344.161 61.9107V59.9107H342.161V61.9107H344.161ZM354.393 61.9107H356.393V59.9107H354.393V61.9107ZM354.393 72.1429V74.1429H356.393V72.1429H354.393ZM344.161 72.1429H342.161V74.1429H344.161V72.1429ZM333.929 61.9107V59.9107H331.929V61.9107H333.929ZM344.161 61.9107H346.161V59.9107H344.161V61.9107ZM344.161 72.1429V74.1429H346.161V72.1429H344.161ZM333.929 72.1429H331.929V74.1429H333.929V72.1429ZM344.161 72.1429V70.1429H342.161V72.1429H344.161ZM354.393 72.1429H356.393V70.1429H354.393V72.1429ZM354.393 82.375V84.375H356.393V82.375H354.393ZM344.161 82.375H342.161V84.375H344.161V82.375ZM354.393 61.9107V59.9107H352.393V61.9107H354.393ZM364.625 61.9107H366.625V59.9107H364.625V61.9107ZM364.625 72.1429V74.1429H366.625V72.1429H364.625ZM354.393 72.1429H352.393V74.1429H354.393V72.1429ZM354.393 72.1429V70.1429H352.393V72.1429H354.393ZM364.625 72.1429H366.625V70.1429H364.625V72.1429ZM364.625 82.375V84.375H366.625V82.375H364.625ZM354.393 82.375H352.393V84.375H354.393V82.375ZM354.393 123.304V121.304H352.393V123.304H354.393ZM364.625 123.304H366.625V121.304H364.625V123.304ZM364.625 133.536V135.536H366.625V133.536H364.625ZM354.393 133.536H352.393V135.536H354.393V133.536ZM354.393 133.536V131.536H352.393V133.536H354.393ZM364.625 133.536H366.625V131.536H364.625V133.536ZM364.625 143.768V145.768H366.625V143.768H364.625ZM354.393 143.768H352.393V145.768H354.393V143.768ZM344.161 133.536V131.536H342.161V133.536H344.161ZM354.393 133.536H356.393V131.536H354.393V133.536ZM354.393 143.768V145.768H356.393V143.768H354.393ZM344.161 143.768H342.161V145.768H344.161V143.768ZM344.161 123.304V121.304H342.161V123.304H344.161ZM354.393 123.304H356.393V121.304H354.393V123.304ZM354.393 133.536V135.536H356.393V133.536H354.393ZM344.161 133.536H342.161V135.536H344.161V133.536ZM333.929 133.536V131.536H331.929V133.536H333.929ZM344.161 133.536H346.161V131.536H344.161V133.536ZM344.161 143.768V145.768H346.161V143.768H344.161ZM333.929 143.768H331.929V145.768H333.929V143.768ZM344.161 143.768V141.768H342.161V143.768H344.161ZM354.393 143.768H356.393V141.768H354.393V143.768ZM354.393 154V156H356.393V154H354.393ZM344.161 154H342.161V156H344.161V154ZM333.929 143.768V141.768H331.929V143.768H333.929ZM344.161 143.768H346.161V141.768H344.161V143.768ZM344.161 154V156H346.161V154H344.161ZM333.929 154H331.929V156H333.929V154ZM323.696 143.768V141.768H321.696V143.768H323.696ZM333.929 143.768H335.929V141.768H333.929V143.768ZM333.929 154V156H335.929V154H333.929ZM323.696 154H321.696V156H323.696V154ZM323.696 133.536V131.536H321.696V133.536H323.696ZM333.929 133.536H335.929V131.536H333.929V133.536ZM333.929 143.768V145.768H335.929V143.768H333.929ZM323.696 143.768H321.696V145.768H323.696V143.768ZM313.464 143.768V141.768H311.464V143.768H313.464ZM323.696 143.768H325.696V141.768H323.696V143.768ZM323.696 154V156H325.696V154H323.696ZM313.464 154H311.464V156H313.464V154ZM303.232 143.768V141.768H301.232V143.768H303.232ZM313.464 143.768H315.464V141.768H313.464V143.768ZM313.464 154V156H315.464V154H313.464ZM303.232 154H301.232V156H303.232V154ZM303.232 133.536V131.536H301.232V133.536H303.232ZM313.464 133.536H315.464V131.536H313.464V133.536ZM313.464 143.768V145.768H315.464V143.768H313.464ZM303.232 143.768H301.232V145.768H303.232V143.768ZM313.464 133.536V131.536H311.464V133.536H313.464ZM323.696 133.536H325.696V131.536H323.696V133.536ZM323.696 143.768V145.768H325.696V143.768H323.696ZM313.464 143.768H311.464V145.768H313.464V143.768ZM313.464 123.304V121.304H311.464V123.304H313.464ZM323.696 123.304H325.696V121.304H323.696V123.304ZM323.696 133.536V135.536H325.696V133.536H323.696ZM313.464 133.536H311.464V135.536H313.464V133.536ZM303.232 123.304V121.304H301.232V123.304H303.232ZM313.464 123.304H315.464V121.304H313.464V123.304ZM313.464 133.536V135.536H315.464V133.536H313.464ZM303.232 133.536H301.232V135.536H303.232V133.536ZM293 133.536V131.536H291V133.536H293ZM303.232 133.536H305.232V131.536H303.232V133.536ZM303.232 143.768V145.768H305.232V143.768H303.232ZM293 143.768H291V145.768H293V143.768ZM293 123.304V121.304H291V123.304H293ZM303.232 123.304H305.232V121.304H303.232V123.304ZM303.232 133.536V135.536H305.232V133.536H303.232ZM293 133.536H291V135.536H293V133.536ZM293 113.071V111.071H291V113.071H293ZM303.232 113.071H305.232V111.071H303.232V113.071ZM303.232 123.304V125.304H305.232V123.304H303.232ZM293 123.304H291V125.304H293V123.304ZM293 102.839V100.839H291V102.839H293ZM303.232 102.839H305.232V100.839H303.232V102.839ZM303.232 113.071V115.071H305.232V113.071H303.232ZM293 113.071H291V115.071H293V113.071ZM293 92.6071V90.6071H291V92.6071H293ZM303.232 92.6071H305.232V90.6071H303.232V92.6071ZM303.232 102.839V104.839H305.232V102.839H303.232ZM293 102.839H291V104.839H293V102.839ZM293 82.375V80.375H291V82.375H293ZM303.232 82.375H305.232V80.375H303.232V82.375ZM303.232 92.6071V94.6071H305.232V92.6071H303.232ZM293 92.6071H291V94.6071H293V92.6071ZM293 72.1429V70.1429H291V72.1429H293ZM303.232 72.1429H305.232V70.1429H303.232V72.1429ZM303.232 82.375V84.375H305.232V82.375H303.232ZM293 82.375H291V84.375H293V82.375ZM303.232 72.1429V70.1429H301.232V72.1429H303.232ZM313.464 72.1429H315.464V70.1429H313.464V72.1429ZM313.464 82.375V84.375H315.464V82.375H313.464ZM303.232 82.375H301.232V84.375H303.232V82.375ZM293 61.9107V59.9107H291V61.9107H293ZM303.232 61.9107H305.232V59.9107H303.232V61.9107ZM303.232 72.1429V74.1429H305.232V72.1429H303.232ZM293 72.1429H291V74.1429H293V72.1429ZM313.464 72.1429V70.1429H311.464V72.1429H313.464ZM323.696 72.1429H325.696V70.1429H323.696V72.1429ZM323.696 82.375V84.375H325.696V82.375H323.696ZM313.464 82.375H311.464V84.375H313.464V82.375ZM303.232 82.375V80.375H301.232V82.375H303.232ZM313.464 82.375H315.464V80.375H313.464V82.375ZM313.464 92.6071V94.6071H315.464V92.6071H313.464ZM303.232 92.6071H301.232V94.6071H303.232V92.6071ZM303.232 92.6071V90.6071H301.232V92.6071H303.232ZM313.464 92.6071H315.464V90.6071H313.464V92.6071ZM313.464 102.839V104.839H315.464V102.839H313.464ZM303.232 102.839H301.232V104.839H303.232V102.839ZM303.232 102.839V100.839H301.232V102.839H303.232ZM313.464 102.839H315.464V100.839H313.464V102.839ZM313.464 113.071V115.071H315.464V113.071H313.464ZM303.232 113.071H301.232V115.071H303.232V113.071ZM303.232 113.071V111.071H301.232V113.071H303.232ZM313.464 113.071H315.464V111.071H313.464V113.071ZM313.464 123.304V125.304H315.464V123.304H313.464ZM303.232 123.304H301.232V125.304H303.232V123.304ZM354.393 113.071V111.071H352.393V113.071H354.393ZM364.625 113.071H366.625V111.071H364.625V113.071ZM364.625 123.304V125.304H366.625V123.304H364.625ZM354.393 123.304H352.393V125.304H354.393V123.304ZM344.161 113.071V111.071H342.161V113.071H344.161ZM354.393 113.071H356.393V111.071H354.393V113.071ZM354.393 123.304V125.304H356.393V123.304H354.393ZM344.161 123.304H342.161V125.304H344.161V123.304ZM344.161 102.839V100.839H342.161V102.839H344.161ZM354.393 102.839H356.393V100.839H354.393V102.839ZM354.393 113.071V115.071H356.393V113.071H354.393ZM344.161 113.071H342.161V115.071H344.161V113.071ZM354.393 102.839V100.839H352.393V102.839H354.393ZM364.625 102.839H366.625V100.839H364.625V102.839ZM364.625 113.071V115.071H366.625V113.071H364.625ZM354.393 113.071H352.393V115.071H354.393V113.071ZM354.393 92.6071V90.6071H352.393V92.6071H354.393ZM364.625 92.6071H366.625V90.6071H364.625V92.6071ZM364.625 102.839V104.839H366.625V102.839H364.625ZM354.393 102.839H352.393V104.839H354.393V102.839ZM344.161 92.6071V90.6071H342.161V92.6071H344.161ZM354.393 92.6071H356.393V90.6071H354.393V92.6071ZM354.393 102.839V104.839H356.393V102.839H354.393ZM344.161 102.839H342.161V104.839H344.161V102.839ZM333.929 92.6071V90.6071H331.929V92.6071H333.929ZM344.161 92.6071H346.161V90.6071H344.161V92.6071ZM344.161 102.839V104.839H346.161V102.839H344.161ZM333.929 102.839H331.929V104.839H333.929V102.839ZM323.696 92.6071V90.6071H321.696V92.6071H323.696ZM333.929 92.6071H335.929V90.6071H333.929V92.6071ZM333.929 102.839V104.839H335.929V102.839H333.929ZM323.696 102.839H321.696V104.839H323.696V102.839ZM323.696 102.839V100.839H321.696V102.839H323.696ZM333.929 102.839H335.929V100.839H333.929V102.839ZM333.929 113.071V115.071H335.929V113.071H333.929ZM323.696 113.071H321.696V115.071H323.696V113.071ZM333.929 102.839V100.839H331.929V102.839H333.929ZM344.161 102.839H346.161V100.839H344.161V102.839ZM344.161 113.071V115.071H346.161V113.071H344.161ZM333.929 113.071H331.929V115.071H333.929V113.071ZM313.464 51.6786V53.6786H323.696V51.6786V49.6786H313.464V51.6786ZM323.696 51.6786H321.696V61.9107H323.696H325.696V51.6786H323.696ZM323.696 61.9107V59.9107H313.464V61.9107V63.9107H323.696V61.9107ZM313.464 61.9107H315.464V51.6786H313.464H311.464V61.9107H313.464ZM303.232 51.6786V53.6786H313.464V51.6786V49.6786H303.232V51.6786ZM313.464 51.6786H311.464V61.9107H313.464H315.464V51.6786H313.464ZM313.464 61.9107V59.9107H303.232V61.9107V63.9107H313.464V61.9107ZM303.232 61.9107H305.232V51.6786H303.232H301.232V61.9107H303.232ZM303.232 61.9107V63.9107H313.464V61.9107V59.9107H303.232V61.9107ZM313.464 61.9107H311.464V72.1429H313.464H315.464V61.9107H313.464ZM313.464 72.1429V70.1429H303.232V72.1429V74.1429H313.464V72.1429ZM303.232 72.1429H305.232V61.9107H303.232H301.232V72.1429H303.232ZM313.464 61.9107V63.9107H323.696V61.9107V59.9107H313.464V61.9107ZM323.696 61.9107H321.696V72.1429H323.696H325.696V61.9107H323.696ZM323.696 72.1429V70.1429H313.464V72.1429V74.1429H323.696V72.1429ZM313.464 72.1429H315.464V61.9107H313.464H311.464V72.1429H313.464ZM323.696 61.9107V63.9107H333.929V61.9107V59.9107H323.696V61.9107ZM333.929 61.9107H331.929V72.1429H333.929H335.929V61.9107H333.929ZM333.929 72.1429V70.1429H323.696V72.1429V74.1429H333.929V72.1429ZM323.696 72.1429H325.696V61.9107H323.696H321.696V72.1429H323.696ZM323.696 51.6786V53.6786H333.929V51.6786V49.6786H323.696V51.6786ZM333.929 51.6786H331.929V61.9107H333.929H335.929V51.6786H333.929ZM333.929 61.9107V59.9107H323.696V61.9107V63.9107H333.929V61.9107ZM323.696 61.9107H325.696V51.6786H323.696H321.696V61.9107H323.696ZM333.929 51.6786V53.6786H344.161V51.6786V49.6786H333.929V51.6786ZM344.161 51.6786H342.161V61.9107H344.161H346.161V51.6786H344.161ZM344.161 61.9107V59.9107H333.929V61.9107V63.9107H344.161V61.9107ZM333.929 61.9107H335.929V51.6786H333.929H331.929V61.9107H333.929ZM344.161 51.6786V53.6786H354.393V51.6786V49.6786H344.161V51.6786ZM354.393 51.6786H352.393V61.9107H354.393H356.393V51.6786H354.393ZM354.393 61.9107V59.9107H344.161V61.9107V63.9107H354.393V61.9107ZM344.161 61.9107H346.161V51.6786H344.161H342.161V61.9107H344.161ZM344.161 61.9107V63.9107H354.393V61.9107V59.9107H344.161V61.9107ZM354.393 61.9107H352.393V72.1429H354.393H356.393V61.9107H354.393ZM354.393 72.1429V70.1429H344.161V72.1429V74.1429H354.393V72.1429ZM344.161 72.1429H346.161V61.9107H344.161H342.161V72.1429H344.161ZM333.929 61.9107V63.9107H344.161V61.9107V59.9107H333.929V61.9107ZM344.161 61.9107H342.161V72.1429H344.161H346.161V61.9107H344.161ZM344.161 72.1429V70.1429H333.929V72.1429V74.1429H344.161V72.1429ZM333.929 72.1429H335.929V61.9107H333.929H331.929V72.1429H333.929ZM344.161 72.1429V74.1429H354.393V72.1429V70.1429H344.161V72.1429ZM354.393 72.1429H352.393V82.375H354.393H356.393V72.1429H354.393ZM354.393 82.375V80.375H344.161V82.375V84.375H354.393V82.375ZM344.161 82.375H346.161V72.1429H344.161H342.161V82.375H344.161ZM354.393 61.9107V63.9107H364.625V61.9107V59.9107H354.393V61.9107ZM364.625 61.9107H362.625V72.1429H364.625H366.625V61.9107H364.625ZM364.625 72.1429V70.1429H354.393V72.1429V74.1429H364.625V72.1429ZM354.393 72.1429H356.393V61.9107H354.393H352.393V72.1429H354.393ZM354.393 72.1429V74.1429H364.625V72.1429V70.1429H354.393V72.1429ZM364.625 72.1429H362.625V82.375H364.625H366.625V72.1429H364.625ZM364.625 82.375V80.375H354.393V82.375V84.375H364.625V82.375ZM354.393 82.375H356.393V72.1429H354.393H352.393V82.375H354.393ZM354.393 123.304V125.304H364.625V123.304V121.304H354.393V123.304ZM364.625 123.304H362.625V133.536H364.625H366.625V123.304H364.625ZM364.625 133.536V131.536H354.393V133.536V135.536H364.625V133.536ZM354.393 133.536H356.393V123.304H354.393H352.393V133.536H354.393ZM354.393 133.536V135.536H364.625V133.536V131.536H354.393V133.536ZM364.625 133.536H362.625V143.768H364.625H366.625V133.536H364.625ZM364.625 143.768V141.768H354.393V143.768V145.768H364.625V143.768ZM354.393 143.768H356.393V133.536H354.393H352.393V143.768H354.393ZM344.161 133.536V135.536H354.393V133.536V131.536H344.161V133.536ZM354.393 133.536H352.393V143.768H354.393H356.393V133.536H354.393ZM354.393 143.768V141.768H344.161V143.768V145.768H354.393V143.768ZM344.161 143.768H346.161V133.536H344.161H342.161V143.768H344.161ZM344.161 123.304V125.304H354.393V123.304V121.304H344.161V123.304ZM354.393 123.304H352.393V133.536H354.393H356.393V123.304H354.393ZM354.393 133.536V131.536H344.161V133.536V135.536H354.393V133.536ZM344.161 133.536H346.161V123.304H344.161H342.161V133.536H344.161ZM333.929 133.536V135.536H344.161V133.536V131.536H333.929V133.536ZM344.161 133.536H342.161V143.768H344.161H346.161V133.536H344.161ZM344.161 143.768V141.768H333.929V143.768V145.768H344.161V143.768ZM333.929 143.768H335.929V133.536H333.929H331.929V143.768H333.929ZM344.161 143.768V145.768H354.393V143.768V141.768H344.161V143.768ZM354.393 143.768H352.393V154H354.393H356.393V143.768H354.393ZM354.393 154V152H344.161V154V156H354.393V154ZM344.161 154H346.161V143.768H344.161H342.161V154H344.161ZM333.929 143.768V145.768H344.161V143.768V141.768H333.929V143.768ZM344.161 143.768H342.161V154H344.161H346.161V143.768H344.161ZM344.161 154V152H333.929V154V156H344.161V154ZM333.929 154H335.929V143.768H333.929H331.929V154H333.929ZM323.696 143.768V145.768H333.929V143.768V141.768H323.696V143.768ZM333.929 143.768H331.929V154H333.929H335.929V143.768H333.929ZM333.929 154V152H323.696V154V156H333.929V154ZM323.696 154H325.696V143.768H323.696H321.696V154H323.696ZM323.696 133.536V135.536H333.929V133.536V131.536H323.696V133.536ZM333.929 133.536H331.929V143.768H333.929H335.929V133.536H333.929ZM333.929 143.768V141.768H323.696V143.768V145.768H333.929V143.768ZM323.696 143.768H325.696V133.536H323.696H321.696V143.768H323.696ZM313.464 143.768V145.768H323.696V143.768V141.768H313.464V143.768ZM323.696 143.768H321.696V154H323.696H325.696V143.768H323.696ZM323.696 154V152H313.464V154V156H323.696V154ZM313.464 154H315.464V143.768H313.464H311.464V154H313.464ZM303.232 143.768V145.768H313.464V143.768V141.768H303.232V143.768ZM313.464 143.768H311.464V154H313.464H315.464V143.768H313.464ZM313.464 154V152H303.232V154V156H313.464V154ZM303.232 154H305.232V143.768H303.232H301.232V154H303.232ZM303.232 133.536V135.536H313.464V133.536V131.536H303.232V133.536ZM313.464 133.536H311.464V143.768H313.464H315.464V133.536H313.464ZM313.464 143.768V141.768H303.232V143.768V145.768H313.464V143.768ZM303.232 143.768H305.232V133.536H303.232H301.232V143.768H303.232ZM313.464 133.536V135.536H323.696V133.536V131.536H313.464V133.536ZM323.696 133.536H321.696V143.768H323.696H325.696V133.536H323.696ZM323.696 143.768V141.768H313.464V143.768V145.768H323.696V143.768ZM313.464 143.768H315.464V133.536H313.464H311.464V143.768H313.464ZM313.464 123.304V125.304H323.696V123.304V121.304H313.464V123.304ZM323.696 123.304H321.696V133.536H323.696H325.696V123.304H323.696ZM323.696 133.536V131.536H313.464V133.536V135.536H323.696V133.536ZM313.464 133.536H315.464V123.304H313.464H311.464V133.536H313.464ZM303.232 123.304V125.304H313.464V123.304V121.304H303.232V123.304ZM313.464 123.304H311.464V133.536H313.464H315.464V123.304H313.464ZM313.464 133.536V131.536H303.232V133.536V135.536H313.464V133.536ZM303.232 133.536H305.232V123.304H303.232H301.232V133.536H303.232ZM293 133.536V135.536H303.232V133.536V131.536H293V133.536ZM303.232 133.536H301.232V143.768H303.232H305.232V133.536H303.232ZM303.232 143.768V141.768H293V143.768V145.768H303.232V143.768ZM293 143.768H295V133.536H293H291V143.768H293ZM293 123.304V125.304H303.232V123.304V121.304H293V123.304ZM303.232 123.304H301.232V133.536H303.232H305.232V123.304H303.232ZM303.232 133.536V131.536H293V133.536V135.536H303.232V133.536ZM293 133.536H295V123.304H293H291V133.536H293ZM293 113.071V115.071H303.232V113.071V111.071H293V113.071ZM303.232 113.071H301.232V123.304H303.232H305.232V113.071H303.232ZM303.232 123.304V121.304H293V123.304V125.304H303.232V123.304ZM293 123.304H295V113.071H293H291V123.304H293ZM293 102.839V104.839H303.232V102.839V100.839H293V102.839ZM303.232 102.839H301.232V113.071H303.232H305.232V102.839H303.232ZM303.232 113.071V111.071H293V113.071V115.071H303.232V113.071ZM293 113.071H295V102.839H293H291V113.071H293ZM293 92.6071V94.6071H303.232V92.6071V90.6071H293V92.6071ZM303.232 92.6071H301.232V102.839H303.232H305.232V92.6071H303.232ZM303.232 102.839V100.839H293V102.839V104.839H303.232V102.839ZM293 102.839H295V92.6071H293H291V102.839H293ZM293 82.375V84.375H303.232V82.375V80.375H293V82.375ZM303.232 82.375H301.232V92.6071H303.232H305.232V82.375H303.232ZM303.232 92.6071V90.6071H293V92.6071V94.6071H303.232V92.6071ZM293 92.6071H295V82.375H293H291V92.6071H293ZM293 72.1429V74.1429H303.232V72.1429V70.1429H293V72.1429ZM303.232 72.1429H301.232V82.375H303.232H305.232V72.1429H303.232ZM303.232 82.375V80.375H293V82.375V84.375H303.232V82.375ZM293 82.375H295V72.1429H293H291V82.375H293ZM303.232 72.1429V74.1429H313.464V72.1429V70.1429H303.232V72.1429ZM313.464 72.1429H311.464V82.375H313.464H315.464V72.1429H313.464ZM313.464 82.375V80.375H303.232V82.375V84.375H313.464V82.375ZM303.232 82.375H305.232V72.1429H303.232H301.232V82.375H303.232ZM293 61.9107V63.9107H303.232V61.9107V59.9107H293V61.9107ZM303.232 61.9107H301.232V72.1429H303.232H305.232V61.9107H303.232ZM303.232 72.1429V70.1429H293V72.1429V74.1429H303.232V72.1429ZM293 72.1429H295V61.9107H293H291V72.1429H293ZM313.464 72.1429V74.1429H323.696V72.1429V70.1429H313.464V72.1429ZM323.696 72.1429H321.696V82.375H323.696H325.696V72.1429H323.696ZM323.696 82.375V80.375H313.464V82.375V84.375H323.696V82.375ZM313.464 82.375H315.464V72.1429H313.464H311.464V82.375H313.464ZM303.232 82.375V84.375H313.464V82.375V80.375H303.232V82.375ZM313.464 82.375H311.464V92.6071H313.464H315.464V82.375H313.464ZM313.464 92.6071V90.6071H303.232V92.6071V94.6071H313.464V92.6071ZM303.232 92.6071H305.232V82.375H303.232H301.232V92.6071H303.232ZM303.232 92.6071V94.6071H313.464V92.6071V90.6071H303.232V92.6071ZM313.464 92.6071H311.464V102.839H313.464H315.464V92.6071H313.464ZM313.464 102.839V100.839H303.232V102.839V104.839H313.464V102.839ZM303.232 102.839H305.232V92.6071H303.232H301.232V102.839H303.232ZM303.232 102.839V104.839H313.464V102.839V100.839H303.232V102.839ZM313.464 102.839H311.464V113.071H313.464H315.464V102.839H313.464ZM313.464 113.071V111.071H303.232V113.071V115.071H313.464V113.071ZM303.232 113.071H305.232V102.839H303.232H301.232V113.071H303.232ZM303.232 113.071V115.071H313.464V113.071V111.071H303.232V113.071ZM313.464 113.071H311.464V123.304H313.464H315.464V113.071H313.464ZM313.464 123.304V121.304H303.232V123.304V125.304H313.464V123.304ZM303.232 123.304H305.232V113.071H303.232H301.232V123.304H303.232ZM354.393 113.071V115.071H364.625V113.071V111.071H354.393V113.071ZM364.625 113.071H362.625V123.304H364.625H366.625V113.071H364.625ZM364.625 123.304V121.304H354.393V123.304V125.304H364.625V123.304ZM354.393 123.304H356.393V113.071H354.393H352.393V123.304H354.393ZM344.161 113.071V115.071H354.393V113.071V111.071H344.161V113.071ZM354.393 113.071H352.393V123.304H354.393H356.393V113.071H354.393ZM354.393 123.304V121.304H344.161V123.304V125.304H354.393V123.304ZM344.161 123.304H346.161V113.071H344.161H342.161V123.304H344.161ZM344.161 102.839V104.839H354.393V102.839V100.839H344.161V102.839ZM354.393 102.839H352.393V113.071H354.393H356.393V102.839H354.393ZM354.393 113.071V111.071H344.161V113.071V115.071H354.393V113.071ZM344.161 113.071H346.161V102.839H344.161H342.161V113.071H344.161ZM354.393 102.839V104.839H364.625V102.839V100.839H354.393V102.839ZM364.625 102.839H362.625V113.071H364.625H366.625V102.839H364.625ZM364.625 113.071V111.071H354.393V113.071V115.071H364.625V113.071ZM354.393 113.071H356.393V102.839H354.393H352.393V113.071H354.393ZM354.393 92.6071V94.6071H364.625V92.6071V90.6071H354.393V92.6071ZM364.625 92.6071H362.625V102.839H364.625H366.625V92.6071H364.625ZM364.625 102.839V100.839H354.393V102.839V104.839H364.625V102.839ZM354.393 102.839H356.393V92.6071H354.393H352.393V102.839H354.393ZM344.161 92.6071V94.6071H354.393V92.6071V90.6071H344.161V92.6071ZM354.393 92.6071H352.393V102.839H354.393H356.393V92.6071H354.393ZM354.393 102.839V100.839H344.161V102.839V104.839H354.393V102.839ZM344.161 102.839H346.161V92.6071H344.161H342.161V102.839H344.161ZM333.929 92.6071V94.6071H344.161V92.6071V90.6071H333.929V92.6071ZM344.161 92.6071H342.161V102.839H344.161H346.161V92.6071H344.161ZM344.161 102.839V100.839H333.929V102.839V104.839H344.161V102.839ZM333.929 102.839H335.929V92.6071H333.929H331.929V102.839H333.929ZM323.696 92.6071V94.6071H333.929V92.6071V90.6071H323.696V92.6071ZM333.929 92.6071H331.929V102.839H333.929H335.929V92.6071H333.929ZM333.929 102.839V100.839H323.696V102.839V104.839H333.929V102.839ZM323.696 102.839H325.696V92.6071H323.696H321.696V102.839H323.696ZM323.696 102.839V104.839H333.929V102.839V100.839H323.696V102.839ZM333.929 102.839H331.929V113.071H333.929H335.929V102.839H333.929ZM333.929 113.071V111.071H323.696V113.071V115.071H333.929V113.071ZM323.696 113.071H325.696V102.839H323.696H321.696V113.071H323.696ZM333.929 102.839V104.839H344.161V102.839V100.839H333.929V102.839ZM344.161 102.839H342.161V113.071H344.161H346.161V102.839H344.161ZM344.161 113.071V111.071H333.929V113.071V115.071H344.161V113.071ZM333.929 113.071H335.929V102.839H333.929H331.929V113.071H333.929Z" fill="#372AAC" mask="url(#path-5-outside-2_1_25)"/>
<path d="M245.312 195C242.562 195 240.359 194.727 238.703 194.18C237.047 193.617 235.844 192.633 235.094 191.227C234.359 189.805 233.992 187.812 233.992 185.25V160.617H238.492V168H255.109V171.703H238.492V185.25C238.492 187 238.648 188.305 238.961 189.164C239.289 190.023 239.938 190.586 240.906 190.852C241.891 191.117 243.359 191.25 245.312 191.25C247.047 191.25 248.406 191.195 249.391 191.086C250.391 190.977 251.125 190.688 251.594 190.219C252.062 189.734 252.359 188.945 252.484 187.852C252.609 186.758 252.672 185.219 252.672 183.234H256.656C256.656 185.828 256.492 187.906 256.164 189.469C255.852 191.031 255.281 192.211 254.453 193.008C253.641 193.805 252.492 194.336 251.008 194.602C249.539 194.867 247.641 195 245.312 195ZM292.656 186.984C292.656 189 292.352 190.586 291.742 191.742C291.148 192.898 290.234 193.742 289 194.273C287.766 194.805 286.188 195.141 284.266 195.281C282.359 195.438 280.086 195.516 277.445 195.516C274.43 195.516 271.867 195.359 269.758 195.047C267.664 194.75 265.969 194.133 264.672 193.195C263.391 192.242 262.453 190.82 261.859 188.93C261.281 187.039 260.992 184.516 260.992 181.359C260.992 178.297 261.273 175.844 261.836 174C262.414 172.156 263.344 170.766 264.625 169.828C265.906 168.891 267.586 168.266 269.664 167.953C271.758 167.641 274.312 167.484 277.328 167.484C280.781 167.484 283.641 167.727 285.906 168.211C288.172 168.695 289.859 169.617 290.969 170.977C292.094 172.336 292.656 174.328 292.656 176.953V182.742H265.516C265.531 184.742 265.672 186.344 265.938 187.547C266.203 188.75 266.734 189.656 267.531 190.266C268.328 190.875 269.516 191.281 271.094 191.484C272.688 191.672 274.805 191.766 277.445 191.766C279.82 191.766 281.734 191.719 283.188 191.625C284.656 191.531 285.766 191.328 286.516 191.016C287.281 190.688 287.797 190.203 288.062 189.562C288.328 188.922 288.461 188.062 288.461 186.984H292.656ZM277.328 171.234C274.781 171.234 272.727 171.328 271.164 171.516C269.617 171.703 268.438 172.07 267.625 172.617C266.812 173.148 266.258 173.945 265.961 175.008C265.68 176.07 265.531 177.469 265.516 179.203H288.344V176.953C288.344 175.828 288.211 174.898 287.945 174.164C287.695 173.414 287.195 172.828 286.445 172.406C285.695 171.969 284.586 171.664 283.117 171.492C281.664 171.32 279.734 171.234 277.328 171.234ZM313.75 195.516C310.469 195.516 307.828 195.406 305.828 195.188C303.844 194.969 302.336 194.562 301.305 193.969C300.289 193.375 299.602 192.531 299.242 191.438C298.898 190.344 298.727 188.922 298.727 187.172H303.039C303.039 188.156 303.109 188.953 303.25 189.562C303.391 190.156 303.789 190.617 304.445 190.945C305.102 191.258 306.164 191.477 307.633 191.602C309.117 191.711 311.195 191.766 313.867 191.766C316.695 191.766 318.891 191.711 320.453 191.602C322.031 191.477 323.164 191.258 323.852 190.945C324.539 190.617 324.953 190.148 325.094 189.539C325.25 188.93 325.328 188.125 325.328 187.125C325.328 185.906 325.219 184.992 325 184.383C324.781 183.773 324.266 183.367 323.453 183.164C322.641 182.945 321.344 182.828 319.562 182.812L308.828 182.695C306.062 182.664 303.953 182.43 302.5 181.992C301.047 181.555 300.055 180.789 299.523 179.695C298.992 178.586 298.727 177.016 298.727 174.984C298.727 173.094 299.016 171.633 299.594 170.602C300.188 169.57 301.109 168.836 302.359 168.398C303.609 167.961 305.234 167.703 307.234 167.625C309.234 167.531 311.648 167.484 314.477 167.484C317.805 167.484 320.445 167.586 322.398 167.789C324.367 167.992 325.836 168.375 326.805 168.938C327.789 169.5 328.43 170.32 328.727 171.398C329.039 172.461 329.195 173.852 329.195 175.57H324.883C324.883 174.555 324.812 173.758 324.672 173.18C324.531 172.586 324.148 172.156 323.523 171.891C322.914 171.609 321.914 171.43 320.523 171.352C319.148 171.273 317.211 171.234 314.711 171.234C311.867 171.234 309.656 171.266 308.078 171.328C306.5 171.391 305.359 171.539 304.656 171.773C303.953 172.008 303.523 172.383 303.367 172.898C303.211 173.398 303.133 174.094 303.133 174.984C303.133 175.891 303.18 176.609 303.273 177.141C303.383 177.656 303.656 178.047 304.094 178.312C304.531 178.578 305.242 178.758 306.227 178.852C307.227 178.93 308.617 178.977 310.398 178.992L319.656 179.086C322.438 179.117 324.547 179.352 325.984 179.789C327.438 180.211 328.422 181 328.938 182.156C329.469 183.297 329.734 184.953 329.734 187.125C329.734 189.078 329.445 190.617 328.867 191.742C328.305 192.867 327.398 193.703 326.148 194.25C324.898 194.781 323.25 195.125 321.203 195.281C319.172 195.438 316.688 195.516 313.75 195.516ZM348.25 195C345.5 195 343.297 194.727 341.641 194.18C339.984 193.617 338.781 192.633 338.031 191.227C337.297 189.805 336.93 187.812 336.93 185.25V160.617H341.43V168H358.047V171.703H341.43V185.25C341.43 187 341.586 188.305 341.898 189.164C342.227 190.023 342.875 190.586 343.844 190.852C344.828 191.117 346.297 191.25 348.25 191.25C349.984 191.25 351.344 191.195 352.328 191.086C353.328 190.977 354.062 190.688 354.531 190.219C355 189.734 355.297 188.945 355.422 187.852C355.547 186.758 355.609 185.219 355.609 183.234H359.594C359.594 185.828 359.43 187.906 359.102 189.469C358.789 191.031 358.219 192.211 357.391 193.008C356.578 193.805 355.43 194.336 353.945 194.602C352.477 194.867 350.578 195 348.25 195Z" fill="#372AAC"/>
</svg>
